<svg width="225" height="214" viewBox="0 0 225 214" fill="none" xmlns="http://www.w3.org/2000/svg">
<path fill-rule="evenodd" clip-rule="evenodd" d="M34 52.2C34 54.9614 36.2386 57.2 39 57.2H84.985C84.9933 57.2 85 57.2067 85 57.215V57.215C85 57.2233 85.0067 57.23 85.015 57.23H121.165C125.841 57.23 129.298 58.9583 131.535 62.415C133.975 65.6683 135.195 69.5317 135.195 74.005C135.195 78.4783 133.975 82.24 131.535 85.29C129.095 88.1367 125.638 89.56 121.165 89.56H88.0396C85.2782 89.56 83.0396 87.3214 83.0396 84.56V81C83.0396 78.2386 80.801 76 78.0396 76H5.68958C2.92815 76 0.689575 78.2386 0.689575 81V205.765C0.689575 208.002 1.50291 209.933 3.12958 211.56C4.75624 213.187 6.68791 214 8.92458 214H74.8046C77.0412 214 78.9729 213.187 80.5996 211.56C82.2262 209.933 83.0396 208.002 83.0396 205.765V150.985C83.0396 148.224 85.2782 145.985 88.0396 145.985H105.41C107.386 145.985 109.177 147.149 109.979 148.954L135.5 206.375C136.516 208.612 138.143 210.442 140.38 211.865C142.82 213.288 145.463 214 148.31 214H217.545C219.375 214 220.9 213.39 222.12 212.17C223.543 210.747 224.255 209.12 224.255 207.29C224.255 206.273 224.051 205.358 223.645 204.545L188.406 138.652C187.136 136.277 187.989 133.339 190.223 131.836C208.844 119.311 218.155 100.136 218.155 74.31C218.155 59.2633 214.495 46.1483 207.175 34.965C199.855 23.7817 189.281 15.2417 175.455 9.34501C161.831 3.44834 145.87 0.5 127.57 0.5H39C36.2386 0.5 34 2.73858 34 5.5V52.2ZM17 5.50001C17 2.73858 14.7614 0.5 12 0.5H8.92458C6.68791 0.5 4.75624 1.31334 3.12958 2.94001C1.50291 4.56668 0.689575 6.49834 0.689575 8.735V52.2C0.689575 54.9614 2.92815 57.2 5.68958 57.2H12C14.7614 57.2 17 54.9614 17 52.2V5.50001Z" fill="#F577A9"/>
</svg>
